HIERARCHY
ROOT Hips
{
	OFFSET 0.00000 0.00000 0.00000
	CHANNELS 6 Xposition Yposition Zposition Zrotation Yrotation Xrotation 
	JOINT LHipJoint
	{
		OFFSET 0 0 0
		CHANNELS 3 Zrotation Yrotation Xrotation
		JOINT LeftHip
		{
			OFFSET 1.37959 -1.78713 0.86582
			CHANNELS 3 Zrotation Yrotation Xrotation
			JOINT LeftKnee
			{
				OFFSET 2.54611 -6.99539 0.00000
				CHANNELS 3 Zrotation Yrotation Xrotation
				JOINT LeftAnkle
				{
					OFFSET 2.59951 -7.14211 0.00000
					CHANNELS 3 Zrotation Yrotation Xrotation
					JOINT LeftToe
					{
						OFFSET 0.18493 -0.50810 1.96120
						CHANNELS 3 Zrotation Yrotation Xrotation
						End Site
						{
							OFFSET 0.00000 -0.00000 1.02054
						}
					}
				}
			}
		}
	}
	JOINT RHipJoint
	{
		OFFSET 0 0 0
		CHANNELS 3 Zrotation Yrotation Xrotation
		JOINT RightHip
		{
			OFFSET -1.33564 -1.78713 0.86582
			CHANNELS 3 Zrotation Yrotation Xrotation
			JOINT RightKnee
			{
				OFFSET -2.52705 -6.94302 0.00000
				CHANNELS 3 Zrotation Yrotation Xrotation
				JOINT RightAnkle
				{
					OFFSET -2.55964 -7.03257 0.00000
					CHANNELS 3 Zrotation Yrotation Xrotation
					JOINT RightToe
					{
						OFFSET -0.25804 -0.70896 2.12109
						CHANNELS 3 Zrotation Yrotation Xrotation
						End Site
						{
							OFFSET -0.00000 -0.00000 1.11821
						}
					}
				}
			}
		}
	}
	JOINT lowerback
	{
		OFFSET 0 0 0
		CHANNELS 3 Zrotation Yrotation Xrotation
		JOINT Chest
		{
			OFFSET -0.02031 2.24248 -0.18900
			CHANNELS 3 Zrotation Yrotation Xrotation
			JOINT Chest2
			{
				OFFSET 0.08342 2.24689 -0.03799
				CHANNELS 3 Zrotation Yrotation Xrotation
				JOINT lowerneck
				{
					OFFSET 0 0 0
					CHANNELS 3 Zrotation Yrotation Xrotation
					JOINT Neck
					{
						OFFSET -0.11607 1.55844 0.24628
						CHANNELS 3 Zrotation Yrotation Xrotation
						JOINT Head
						{
							OFFSET 0.06877 1.60174 -0.17013
							CHANNELS 3 Zrotation Yrotation Xrotation
							End Site
							{
								OFFSET 0.03358 1.61266 -0.08543
							}
						}
					}
				}
				JOINT LeftCollar
				{
					OFFSET 0 0 0
					CHANNELS 3 Zrotation Yrotation Xrotation
					JOINT LeftShoulder
					{
						OFFSET 3.47537 0.55866 -0.72348
CHANNELS 3 Zrotation Xrotation Yrotation
						JOINT LeftElbow
						{
OFFSET 0 -5.381540 0.000000
CHANNELS 3 Zrotation Xrotation Yrotation
							JOINT LeftWrist
							{
OFFSET 0 -3.333120 0.000000
CHANNELS 3 Zrotation Xrotation Yrotation
								JOINT lhand
								{
									OFFSET 0 0 0
CHANNELS 3 Zrotation Xrotation Yrotation
									JOINT LFingers
									{
OFFSET 0 -0.710790 0.000000
CHANNELS 3 Zrotation Xrotation Yrotation
										End Site
										{
OFFSET 0 -0.573060 0.000000
										}
									}
								}
								JOINT LThumb
								{
OFFSET 0 0.000000 0.000000
CHANNELS 3 Zrotation Xrotation Yrotation
									End Site
									{
OFFSET 0 -0.581810 0.581810
									}
								}
							}
						}
					}
				}
				JOINT RightCollar
				{
					OFFSET 0 0 0
					CHANNELS 3 Zrotation Yrotation Xrotation
					JOINT RightShoulder
					{
						OFFSET -3.27844 0.90739 -0.35708
CHANNELS 3 Zrotation Xrotation Yrotation
						JOINT RightElbow
						{
OFFSET 0 -5.169540 0.000000
CHANNELS 3 Zrotation Xrotation Yrotation
							JOINT RightWrist
							{
OFFSET 0 -3.382870 0.000000
CHANNELS 3 Zrotation Xrotation Yrotation
								JOINT rhand
								{
									OFFSET 0 0 0
CHANNELS 3 Zrotation Xrotation Yrotation
									JOINT RFingers
									{
OFFSET 0 -0.817970 0.000000
CHANNELS 3 Zrotation Xrotation Yrotation
										End Site
										{
OFFSET 0 -0.659470 0.000000
										}
									}
								}
								JOINT RThumb
								{
OFFSET 0 0.000000 0.000000
CHANNELS 3 Zrotation Xrotation Yrotation
									End Site
									{
OFFSET 0 -0.669530 0.669530
									}
								}
							}
						}
					}
				}
			}
		}
	}
}
MOTION
Frames: 5
Frame Time: 0.008333333333333333
3.389300 17.836100 22.901100 -175.374000 -0.283400 177.816000 0.000000 0.000000 0.000000 -15.583900 -5.340200 -9.398700 3.559300 11.549700 34.157100 0.936700 -7.029900 -17.281700 0.160300 -2.579500 -7.110000 0.000000 0.000000 0.000000 14.894300 -1.570600 -18.925400 -5.958400 -14.387900 44.814500 -0.381400 -4.088700 -13.893700 -0.070700 -1.715900 4.721300 -1.716900 0.334700 3.703400 1.006200 0.354600 1.134900 1.979800 0.159900 -0.928600 -8.308400 -2.954900 -19.903200 3.247200 -2.349200 16.219200 2.143100 -1.311900 8.466100 -0.000000 0.000000 0.000000 50.868500 -44.844600 -2.575000 18.407700 -28.676100 4.743300 -1.807900 17.665800 -35.525400 0.000000 0.000000 0.000000 -7.125000 0.000000 0.000000 -40.856600 60.612700 17.189400 -0.000000 0.000000 0.000000 -75.074200 -62.135400 -4.999400 -20.516600 -31.259700 -5.797100 -10.388300 -9.774700 -25.312700 0.000000 0.000000 0.000000 7.125000 0.000000 -0.000000 11.680900 4.747400 10.907900
3.390722 17.837771 22.861843 -175.241008 -0.544441 177.844803 0.000000 0.000000 0.000000 -15.423385 -5.336822 -9.293587 3.551904 11.538997 34.120083 0.948079 -7.307440 -17.400681 0.142840 -2.426631 -6.686631 0.000000 0.000000 0.000000 15.087814 -1.561141 -19.167665 -5.836076 -14.265576 44.316386 -0.392388 -4.175714 -14.109829 -0.064157 -1.630593 4.486040 -1.692186 0.323997 3.610590 1.065228 0.340590 1.199440 2.027627 0.149943 -0.810117 -8.337274 -2.978760 -19.973430 3.244853 -2.362997 16.160705 2.144522 -1.317838 8.459628 0.000000 0.000000 0.000000 50.796315 -44.936023 -2.455628 18.379822 -28.640754 4.729930 -1.956538 17.713592 -35.411930 0.000000 0.000000 0.000000 -7.125000 0.000000 0.000000 -40.869152 60.490341 17.074970 0.000000 0.000000 0.000000 -75.858460 -61.893988 -5.572686 -20.574633 -31.328329 -5.827290 -12.249543 -10.385288 -24.095755 0.000000 0.000000 0.000000 7.125000 0.000000 0.000000 10.478321 5.736196 9.595905
3.392145 17.839443 22.822585 -175.108017 -0.805481 177.873606 0.000000 0.000000 0.000000 -15.262871 -5.333444 -9.188474 3.544507 11.528293 34.083066 0.959458 -7.584980 -17.519663 0.125381 -2.273761 -6.263263 0.000000 0.000000 0.000000 15.281327 -1.551682 -19.409931 -5.713752 -14.143252 43.818272 -0.403376 -4.262727 -14.325958 -0.057614 -1.545287 4.250780 -1.667473 0.313293 3.517781 1.124257 0.326579 1.263980 2.075454 0.139987 -0.691633 -8.366148 -3.002621 -20.043659 3.242506 -2.376794 16.102210 2.145945 -1.323777 8.453156 0.000000 0.000000 0.000000 50.724129 -45.027446 -2.336255 18.351943 -28.605408 4.716559 -2.105175 17.761383 -35.298461 0.000000 0.000000 0.000000 -7.125000 0.000000 0.000000 -40.881705 60.367981 16.960541 0.000000 0.000000 0.000000 -76.642719 -61.652576 -6.145973 -20.632665 -31.396959 -5.857480 -14.110786 -10.995876 -22.878811 0.000000 0.000000 0.000000 7.125000 0.000000 0.000000 9.275742 6.724993 8.283911
3.393320 17.840787 22.783515 -175.006077 -1.064912 177.904078 0.000000 0.000000 0.000000 -15.137775 -5.326480 -9.076789 3.533625 11.512475 34.028452 0.968466 -7.853879 -17.618010 0.106632 -2.095263 -5.769423 0.000000 0.000000 0.000000 15.438066 -1.542397 -19.654339 -5.592964 -14.021389 43.324331 -0.413242 -4.352579 -14.528298 -0.049589 -1.424154 3.916989 -1.659166 0.305662 3.430500 1.164380 0.316489 1.319679 2.112878 0.132454 -0.585463 -8.396084 -3.033319 -20.091238 3.256373 -2.405422 16.048750 2.151260 -1.335425 8.445623 0.000000 0.000000 0.000000 50.659423 -45.104872 -2.252128 18.333580 -28.582129 4.707750 -2.312311 17.753936 -35.186333 0.000000 0.000000 0.000000 -7.125000 0.000000 0.000000 -40.951005 60.232901 16.861036 0.000000 0.000000 0.000000 -77.360214 -61.420326 -6.721116 -20.674104 -31.445969 -5.879028 -15.109812 -11.369356 -22.567355 0.000000 0.000000 0.000000 7.125000 0.000000 0.000000 8.639922 6.923332 7.680911
3.393427 17.840716 22.745253 -175.038436 -1.317383 177.941771 0.000000 0.000000 0.000000 -15.165867 -5.304006 -8.936686 3.507667 11.474533 33.897737 0.967222 -8.085406 -17.627113 0.082310 -1.805917 -4.970798 0.000000 0.000000 0.000000 15.435755 -1.533863 -19.908019 -5.478819 -13.901519 42.848441 -0.418255 -4.454705 -14.670997 -0.035152 -1.148071 3.157052 -1.721822 0.311316 3.367134 1.122740 0.323352 1.337138 2.105304 0.135406 -0.532551 -8.430612 -3.093592 -20.040850 3.340364 -2.498196 16.017067 2.173414 -1.371766 8.433497 0.000000 0.000000 0.000000 50.627064 -45.121763 -2.320437 18.356374 -28.611039 4.718667 -2.772448 17.507582 -35.080011 0.000000 0.000000 0.000000 -7.125000 0.000000 0.000000 -41.265740 60.042801 16.826081 0.000000 0.000000 0.000000 -77.788952 -61.227702 -7.304288 -20.643772 -31.410125 -5.863205 -12.379750 -10.717341 -26.172140 0.000000 0.000000 0.000000 7.125000 0.000000 0.000000 10.455329 3.702943 10.144315
